<?xml version="1.0" standalone="no"?>
<!DOCTYPE svg PUBLIC "-//W3C//DTD SVG 20010904//EN"
 "http://www.w3.org/TR/2001/REC-SVG-20010904/DTD/svg10.dtd">
<svg version="1.0" xmlns="http://www.w3.org/2000/svg"
 width="883.000000pt" height="283.000000pt" viewBox="0 0 883.000000 283.000000"
 preserveAspectRatio="xMidYMid meet">
<metadata>
Created by potrace 1.16, written by Peter Selinger 2001-2019
</metadata>
<g transform="translate(0.000000,283.000000) scale(0.100000,-0.100000)"
fill="#000000" stroke="none">
<path d="M8320 2589 c-36 -5 -107 -16 -157 -25 l-93 -16 32 -61 c17 -34 48
-91 68 -127 288 -504 279 -490 312 -490 17 0 31 7 38 19 14 27 12 124 -6 266
-8 66 -21 174 -29 240 -18 159 -22 173 -56 190 -15 8 -32 14 -36 14 -4 -1 -37
-5 -73 -10z"/>
<path d="M6805 2369 c-229 -35 -433 -63 -570 -79 -88 -11 -161 -20 -162 -20
-8 -1 -1 -24 12 -43 9 -12 45 -71 82 -132 36 -60 115 -191 174 -289 60 -99
109 -188 109 -198 0 -10 10 -24 23 -32 19 -13 29 -14 67 -2 25 7 104 21 175
31 72 9 191 25 265 35 74 11 160 22 190 25 112 12 180 27 180 41 0 7 -4 15 -9
19 -6 3 -33 49 -62 103 -29 53 -60 108 -69 122 -10 14 -27 41 -37 60 -35 61
-149 253 -174 295 -14 22 -28 48 -32 58 -7 19 -58 21 -162 6z"/>
<path d="M4807 2085 c-38 -8 -152 -23 -255 -35 -103 -11 -234 -27 -292 -36
-58 -8 -120 -18 -137 -20 -18 -3 -33 -9 -33 -15 0 -11 49 -107 85 -164 24 -39
41 -69 83 -148 11 -21 25 -43 30 -50 5 -7 22 -37 38 -67 15 -30 48 -86 72
-125 25 -38 56 -87 69 -108 23 -37 23 -63 -1 -54 -7 3 -18 2 -24 -2 -14 -8
-63 -142 -56 -153 3 -4 1 -8 -5 -8 -6 0 -15 -19 -21 -42 -15 -58 -57 -169 -90
-243 -38 -83 -60 -154 -50 -160 16 -10 804 -8 830 3 17 7 32 27 47 63 12 30
52 128 88 219 83 204 142 360 162 424 l15 48 -42 82 c-24 44 -62 110 -85 146
-61 95 -83 131 -103 170 -9 19 -48 81 -85 137 -37 57 -72 114 -79 128 -9 21
-18 25 -52 24 -23 0 -72 -7 -109 -14z"/>
<path d="M2879 1826 c-2 -2 -83 -14 -179 -26 -96 -12 -233 -30 -305 -41 -71
-11 -161 -24 -200 -30 -82 -11 -105 -17 -105 -28 0 -14 140 -270 249 -456 29
-49 62 -106 73 -125 11 -19 33 -57 50 -83 17 -26 28 -50 25 -53 -3 -3 -36 -10
-73 -15 -38 -5 -76 -12 -84 -14 -9 -3 -35 -53 -59 -113 -23 -59 -50 -124 -59
-145 -9 -23 -12 -41 -6 -46 5 -5 194 -11 421 -13 357 -3 414 -1 426 12 8 8 29
56 47 105 19 50 37 95 40 100 4 6 13 28 20 50 14 45 45 117 65 155 10 18 27
28 62 35 46 10 48 12 45 43 -1 18 -11 49 -22 69 -11 21 -20 41 -20 46 0 4 -15
32 -32 63 -18 30 -42 72 -53 92 -44 79 -89 153 -171 282 -34 52 -67 105 -73
118 -9 16 -21 22 -45 22 -18 0 -35 -2 -37 -4z"/>
<path d="M800 1539 c-48 -12 -78 -16 -202 -29 -112 -11 -203 -33 -214 -51 -23
-37 9 -315 46 -410 17 -43 18 -51 5 -100 -9 -32 -15 -102 -15 -171 0 -111 1
-118 23 -130 32 -19 578 -19 585 0 8 25 46 52 71 52 35 0 169 28 192 40 35 19
61 68 54 103 -7 34 -70 168 -108 228 -25 41 -85 141 -169 284 -33 55 -64 107
-69 115 -5 8 -19 30 -30 48 -20 30 -24 32 -77 31 -32 -1 -73 -5 -92 -10z m-55
-209 l25 -10 -26 -40 c-30 -46 -45 -144 -34 -228 8 -62 -2 -72 -48 -48 -68 35
-100 102 -89 193 5 51 29 88 77 121 36 24 56 27 95 12z"/>
<path d="M6557 1432 l-49 -3 -39 -84 c-21 -45 -39 -89 -39 -95 0 -7 -8 -31
-19 -54 -51 -113 -61 -138 -61 -150 0 -7 -7 -19 -15 -26 -8 -7 -15 -21 -15
-32 0 -10 -13 -47 -29 -81 -15 -34 -34 -80 -41 -102 -6 -22 -21 -58 -31 -81
-10 -22 -19 -46 -19 -52 0 -9 70 -12 273 -13 386 -1 516 1 563 7 40 6 43 9 71
67 17 34 49 112 73 172 24 61 48 124 55 140 12 27 29 70 71 175 20 52 74 204
74 211 0 7 -727 7 -823 1z"/>
<path d="M8487 1417 c-14 -21 -45 -98 -173 -427 -20 -52 -45 -120 -55 -150 -9
-30 -27 -81 -39 -113 -12 -32 -20 -61 -17 -64 11 -11 217 -32 313 -33 81 0
104 3 115 16 13 16 9 104 -21 554 -8 125 -30 202 -63 225 -29 21 -42 19 -60
-8z"/>
</g>
</svg>
